<svg viewBox="0 0 120 120" xmlns="http://www.w3.org/2000/svg"><path fill-rule="evenodd" d="M60 10C30 10 15 35 15 55c0 20 15 40 30 45v10h10v-10c0 0 5 2 10 0v10h10v-10c15-5 30-25 30-45 0-20-15-45-45-45z M45 29a6 6 0 1 0 0 12a6 6 0 1 0 0-12z M75 29a6 6 0 1 0 0 12a6 6 0 1 0 0-12z M46 31.5a2.5 2.5 0 1 0 0 5a2.5 2.5 0 1 0 0-5z M76 31.5a2.5 2.5 0 1 0 0 5a2.5 2.5 0 1 0 0-5z"/><path d="M20 45C5 40 0 50 5 60c5 10 15 5 20-5 3-7 0-10-5-10z"/><path d="M100 45c15-5 20 5 15 15-5 10-15 5-20-5-3-7 0-10 5-10z"/><path d="M45 15Q35 5 30 8" stroke="black" stroke-width="3" stroke-linecap="round" fill="none"/><path d="M75 15Q85 5 90 8" stroke="black" stroke-width="3" stroke-linecap="round" fill="none"/></svg>
