<svg width="200" height="200" viewBox="0 0 200 200" fill="none" xmlns="http://www.w3.org/2000/svg">
  <defs>
    <linearGradient id="kpopGrad3" x1="0%" y1="0%" x2="100%" y2="100%">
      <stop offset="0%" style="stop-color:#8b5cf6"/>
      <stop offset="100%" style="stop-color:#d946ef"/>
    </linearGradient>
    <linearGradient id="cardShine" x1="0%" y1="0%" x2="100%" y2="100%">
      <stop offset="0%" style="stop-color:#ffffff;stop-opacity:0.9"/>
      <stop offset="50%" style="stop-color:#f3e8ff;stop-opacity:0.7"/>
      <stop offset="100%" style="stop-color:#ffffff;stop-opacity:0.9"/>
    </linearGradient>
  </defs>
  <circle cx="100" cy="100" r="90" fill="url(#kpopGrad3)"/>
  
  <g transform="translate(100, 85)">
    <rect x="-50" y="-35" width="36" height="52" rx="4" fill="url(#cardShine)" transform="rotate(-45)"/>
    <rect x="-38" y="-38" width="36" height="52" rx="4" fill="url(#cardShine)" transform="rotate(-30)"/>
    <rect x="-26" y="-40" width="36" height="52" rx="4" fill="url(#cardShine)" transform="rotate(-15)"/>
    <rect x="-18" y="-40" width="36" height="52" rx="4" fill="white"/>
    <rect x="-6" y="-40" width="36" height="52" rx="4" fill="url(#cardShine)" transform="rotate(15)"/>
    <rect x="6" y="-38" width="36" height="52" rx="4" fill="url(#cardShine)" transform="rotate(30)"/>
    <rect x="18" y="-35" width="36" height="52" rx="4" fill="url(#cardShine)" transform="rotate(45)"/>
  </g>
  
  <g transform="translate(82, 45)">
    <rect x="0" y="0" width="36" height="52" rx="4" fill="white" stroke="#d946ef" stroke-width="2"/>
    <rect x="4" y="4" width="28" height="32" rx="2" fill="#fae8ff"/>
    <circle cx="12" cy="16" r="5" fill="#e879f9"/>
    <circle cx="24" cy="16" r="5" fill="#c026d3"/>
    <circle cx="18" cy="24" r="5" fill="#a855f7"/>
    <text x="18" y="48" text-anchor="middle" font-size="8" fill="#9333ea" font-family="Arial, sans-serif" font-weight="bold">x7</text>
  </g>
  
  <g transform="translate(140, 25)">
    <circle cx="12" cy="12" r="12" fill="#fbbf24"/>
    <text x="12" y="16" text-anchor="middle" font-size="10" fill="#92400e" font-family="Arial, sans-serif" font-weight="bold">7</text>
  </g>
  
  <g transform="translate(25, 140)">
    <path d="M12 2 L14.5 9 L22 9 L16 13.5 L18.5 21 L12 16 L5.5 21 L8 13.5 L2 9 L9.5 9 Z" fill="#fbbf24"/>
  </g>
  <g transform="translate(155, 140)">
    <path d="M12 2 L14.5 9 L22 9 L16 13.5 L18.5 21 L12 16 L5.5 21 L8 13.5 L2 9 L9.5 9 Z" fill="#fbbf24"/>
  </g>
  
  <text x="100" y="178" text-anchor="middle" font-size="11" fill="white" font-family="Arial, sans-serif" font-weight="bold">MOTS 7-MEMBER SET</text>
</svg>
