<svg width="200" height="200" viewBox="0 0 200 200" fill="none" xmlns="http://www.w3.org/2000/svg">
  <defs>
    <linearGradient id="kpopGrad4" x1="0%" y1="0%" x2="100%" y2="100%">
      <stop offset="0%" style="stop-color:#a855f7"/>
      <stop offset="100%" style="stop-color:#6366f1"/>
    </linearGradient>
    <linearGradient id="vipGold" x1="0%" y1="0%" x2="100%" y2="100%">
      <stop offset="0%" style="stop-color:#fef3c7"/>
      <stop offset="30%" style="stop-color:#fcd34d"/>
      <stop offset="50%" style="stop-color:#fef3c7"/>
      <stop offset="70%" style="stop-color:#f59e0b"/>
      <stop offset="100%" style="stop-color:#fcd34d"/>
    </linearGradient>
    <linearGradient id="purpleShine" x1="0%" y1="0%" x2="100%" y2="0%">
      <stop offset="0%" style="stop-color:#c084fc"/>
      <stop offset="50%" style="stop-color:#e879f9"/>
      <stop offset="100%" style="stop-color:#c084fc"/>
    </linearGradient>
  </defs>
  <circle cx="100" cy="100" r="90" fill="url(#kpopGrad4)"/>
  
  <g transform="translate(30, 45)">
    <rect x="0" y="0" width="140" height="85" rx="10" fill="url(#vipGold)" stroke="#b45309" stroke-width="1"/>
    <rect x="5" y="5" width="130" height="75" rx="8" fill="none" stroke="#fbbf24" stroke-width="1" stroke-dasharray="2,2"/>
    
    <rect x="12" y="20" width="30" height="24" rx="4" fill="#f59e0b"/>
    <rect x="15" y="23" width="24" height="18" rx="2" fill="#fbbf24"/>
    <line x1="18" y1="28" x2="36" y2="28" stroke="#d97706" stroke-width="1"/>
    <line x1="18" y1="32" x2="36" y2="32" stroke="#d97706" stroke-width="1"/>
    <line x1="18" y1="36" x2="36" y2="36" stroke="#d97706" stroke-width="1"/>
    <line x1="27" y1="23" x2="27" y2="41" stroke="#d97706" stroke-width="1"/>
    
    <text x="95" y="28" text-anchor="middle" font-size="18" fill="#7c2d12" font-family="Arial, sans-serif" font-weight="bold">ARMY</text>
    <rect x="55" y="32" width="80" height="2" fill="url(#purpleShine)"/>
    
    <text x="95" y="52" text-anchor="middle" font-size="9" fill="#92400e" font-family="Arial, sans-serif" font-weight="bold">OFFICIAL MEMBER</text>
    <text x="95" y="65" text-anchor="middle" font-size="8" fill="#a16207" font-family="Arial, sans-serif">2024 EDITION</text>
    
    <text x="70" y="78" text-anchor="middle" font-size="6" fill="#78350f" font-family="Arial, sans-serif">VALID: 2024.01 - 2024.12</text>
    
    <g transform="translate(115, 55)">
      <path d="M10 3 C10 1, 13 -1, 16 2 C19 -1, 22 1, 22 3 C22 7, 16 11, 16 11 C16 11, 10 7, 10 3 Z" fill="#9333ea"/>
    </g>
  </g>
  
  <g transform="translate(145, 30)">
    <circle cx="15" cy="15" r="15" fill="#fbbf24" stroke="#f59e0b" stroke-width="2"/>
    <text x="15" y="20" text-anchor="middle" font-size="12" fill="#78350f" font-family="Arial, sans-serif" font-weight="bold">VIP</text>
  </g>
  
  <g transform="translate(20, 30)">
    <path d="M15 2 L18 11 L28 11 L20 17 L23 26 L15 20 L7 26 L10 17 L2 11 L12 11 Z" fill="#fbbf24"/>
  </g>
  
  <text x="100" y="178" text-anchor="middle" font-size="12" fill="white" font-family="Arial, sans-serif" font-weight="bold">ARMY MEMBERSHIP 2024</text>
</svg>
