<svg width="111" height="111" viewBox="0 0 111 111" fill="none" xmlns="http://www.w3.org/2000/svg">
  <circle cx="55.5" cy="55.5" r="55.5" fill="#213147"/>
  <g transform="translate(11 11) scale(.0356)">
    <path fill="#213147" d="M226 760v980c0 63 33 120 88 152l849 490c54 31 121 31 175 0l849-490c54-31 88-89 88-152V760c0-63-33-120-88-152l-849-490c-54-31-121-31-175 0L314 608c-54 31-87 89-87 152h-1Z"/>
    <path fill="#12AAFF" d="m1435 1440-121 332c-3 9-3 19 0 29l208 571 241-139-289-793c-7-18-32-18-39 0ZM1678 882c-7-18-32-18-39 0l-121 332c-3 9-3 19 0 29l341 935 241-139-422-1156v-1Z"/>
    <path fill="#9DCCED" d="M1250 155c6 0 12 2 17 5l918 530c11 6 17 18 17 30v1060c0 12-7 24-17 30l-918 530c-5 3-11 5-17 5s-12-2-17-5l-918-530c-11-6-17-18-17-30V719c0-12 7-24 17-30l918-530c5-3 11-5 17-5v1Zm0-155c-33 0-65 8-95 25L237 555c-59 34-95 96-95 164v1060c0 68 36 130 95 164l918 530c29 17 62 25 95 25s65-8 95-25l918-530c59-34 95-96 95-164V719c0-68-36-130-95-164L1344 25c-29-17-62-25-95-25h1Z"/>
    <path fill="#213147" d="m642 2179 85-232 170 141-159 146-96-55Z"/>
    <path fill="#fff" d="M1172 644H939c-17 0-33 11-39 27L401 2039l241 139 550-1507c5-14-5-28-19-28l-1 1ZM1580 644h-233c-17 0-33 11-39 27L738 2233l241 139 620-1701c5-14-5-28-19-28v1Z"/>
  </g>
</svg>
